<svg width="130" height="130" viewBox="0 0 130 130" fill="none" xmlns="http://www.w3.org/2000/svg">
<path d="M117.5 114.125C117.5 118.062 114.313 121.063 110.188 121.063H25.25C21.3125 121.063 17.9375 117.875 17.9375 114.125V31.0625C17.9375 27.125 21.125 23.9375 25.25 23.9375H110.375C114.313 23.9375 117.688 27.125 117.688 31.0625V114.125H117.5Z" fill="#93A2AA"/>
<path d="M112.062 114.125C112.062 118.063 108.875 121.063 104.75 121.063H19.8125C15.6875 121.25 12.5 118.063 12.5 114.125V31.0625C12.5 27.125 15.6875 23.9375 19.8125 23.9375H104.937C108.875 23.9375 112.25 27.125 112.25 31.0625V114.125H112.062Z" fill="#F0F4F5"/>
<path d="M103.062 110.75C91.0625 122.375 69.3125 121.25 69.3125 121.25C69.3125 121.25 85.25 116.563 99.875 99.3125C110.937 86.375 112.062 70.625 112.062 70.625C112.062 70.625 118.625 95.5625 103.062 110.75Z" fill="#93A2AA"/>
<path d="M29.5625 42.125C32.5655 42.125 35 39.7745 35 36.875C35 33.9755 32.5655 31.625 29.5625 31.625C26.5595 31.625 24.125 33.9755 24.125 36.875C24.125 39.7745 26.5595 42.125 29.5625 42.125Z" fill="#3E4347"/>
<path d="M51.5 42.125C54.503 42.125 56.9375 39.7745 56.9375 36.875C56.9375 33.9755 54.503 31.625 51.5 31.625C48.4969 31.625 46.0625 33.9755 46.0625 36.875C46.0625 39.7745 48.4969 42.125 51.5 42.125Z" fill="#3E4347"/>
<path d="M73.0625 42.125C76.0655 42.125 78.5 39.7745 78.5 36.875C78.5 33.9755 76.0655 31.625 73.0625 31.625C70.0594 31.625 67.625 33.9755 67.625 36.875C67.625 39.7745 70.0594 42.125 73.0625 42.125Z" fill="#3E4347"/>
<path d="M94.8125 42.125C97.8156 42.125 100.25 39.7745 100.25 36.875C100.25 33.9755 97.8156 31.625 94.8125 31.625C91.8095 31.625 89.375 33.9755 89.375 36.875C89.375 39.7745 91.8095 42.125 94.8125 42.125Z" fill="#3E4347"/>
<path d="M81.125 13.625C79.8125 11.375 77.9375 8.93751 74.375 8.75001C71 8.56251 70.8125 12.6875 74.1875 12.875C74 12.875 74.9375 13.4375 74.75 13.25C75.5 14 75.875 14.9375 76.4375 15.875C77.5625 18.5 77.9375 21.3125 77.9375 24.125H83.375C83.1875 20.5625 82.625 16.8125 81.125 13.625V13.625ZM74.1875 12.875C74.375 12.875 74.375 12.875 74.1875 12.875Z" fill="#3E4347"/>
<path d="M59.375 13.625C58.25 11.375 56.1875 8.93751 52.625 8.75001C49.25 8.56251 49.0625 12.6875 52.4375 12.875C52.25 12.875 53.1875 13.4375 53 13.25C53.75 14 54.125 14.9375 54.6875 15.875C55.8125 18.5 56.1875 21.3125 56.1875 24.125H61.625C61.4375 20.5625 61.0625 16.8125 59.375 13.625V13.625Z" fill="#3E4347"/>
<path d="M37.625 13.625C36.5 11.375 34.4375 8.93751 30.875 8.75001C27.5 8.56251 27.5 12.6875 30.875 12.875C30.6875 12.875 31.625 13.4375 31.4375 13.25C32.1875 14 32.5625 14.9375 33.125 15.875C34.25 18.5 34.625 21.3125 34.625 24.125H40.0625C39.875 20.5625 39.3125 16.8125 37.625 13.625Z" fill="#3E4347"/>
<path d="M102.687 13.625C101.562 11.375 99.5 8.93751 95.9375 8.75001C92.5625 8.56251 92.375 12.6875 95.75 12.875C95.75 12.875 96.5 13.4375 96.3125 13.25C97.0625 14 97.4375 14.9375 98 15.875C99.125 18.5 99.5 21.3125 99.5 24.125H104.937C104.937 20.5625 104.375 16.8125 102.687 13.625V13.625Z" fill="#3E4347"/>
<path d="M73.0625 35C72.5 35 73.8125 35.1875 73.0625 35C73.625 35.1875 72.3125 34.4375 72.6875 34.625C71.9375 33.875 71.5625 32.9375 71 32C69.875 29.375 69.5 26.5625 69.5 23.75C69.5 20.9375 69.875 18.125 71 15.5C71.375 14.5625 71.75 14 72.5 13.0625C72.5 12.875 72.6875 12.875 73.25 12.5C72.6875 12.875 73.25 12.5 73.4375 12.5C73.0625 12.6875 73.0625 12.6875 73.25 12.5H73.0625C76.625 12.3125 76.625 8.18751 73.0625 8.37501C69.5 8.56251 67.625 11 66.3125 13.25C64.625 16.4375 64.25 20.1875 64.25 23.5625C64.25 26.9375 64.8125 30.6875 66.3125 33.875C67.4375 36.125 69.5 38.5625 73.0625 38.75C76.625 39.3125 76.625 35.1875 73.0625 35" fill="#94989B"/>
<path d="M51.5 35C50.75 35 52.0625 35.1875 51.5 35C52.0625 35.1875 50.75 34.4375 51.125 34.625C50.375 33.875 50 32.9375 49.4375 32C48.3125 29.375 47.9375 26.5625 47.9375 23.75C47.9375 20.9375 48.3125 18.125 49.4375 15.5C49.8125 14.5625 50.1875 14 50.9375 13.0625C50.9375 12.875 51.125 12.875 51.6875 12.5C51.125 12.875 51.6875 12.5 51.875 12.5C51.5 12.6875 51.5 12.6875 51.6875 12.5H51.5C55.0625 12.3125 55.0625 8.18751 51.5 8.37501C47.9375 8.56251 46.0625 11 44.75 13.25C43.0625 16.4375 42.6875 20.1875 42.6875 23.5625C42.6875 26.9375 43.25 30.6875 44.75 33.875C45.875 36.125 47.9375 38.5625 51.5 38.75C54.875 39.3125 54.875 35.1875 51.5 35Z" fill="#94989B"/>
<path d="M29.75 35C29.1875 35 30.3125 35.1875 29.75 35C30.3125 35.1875 29 34.4375 29.375 34.625C28.625 33.875 28.25 32.9375 27.6875 32C26.5625 29.375 26.1875 26.5625 26.1875 23.75C26.1875 20.9375 26.5625 18.125 27.6875 15.5C28.0625 14.5625 28.4375 14 29.1875 13.0625C29.1875 12.875 29.375 12.875 29.9375 12.5C29.375 12.875 29.9375 12.5 30.125 12.5C29.75 12.6875 29.75 12.6875 29.9375 12.5H29.75C33.3125 12.3125 33.3125 8.18751 29.75 8.37501C26.1875 8.56251 24.3125 11 23 13.25C21.3125 16.4375 20.9375 20.1875 20.9375 23.5625C20.9375 26.9375 21.5 30.6875 23 33.875C24.125 36.125 26.1875 38.5625 29.75 38.75C33.3125 39.3125 33.3125 35.1875 29.75 35" fill="#94989B"/>
<path d="M94.8125 35C94.25 35 95.375 35.1875 94.8125 35C95.375 35.1875 94.0625 34.4375 94.4375 34.625C93.6875 33.875 93.3125 32.9375 92.75 32C91.625 29.375 91.25 26.5625 91.25 23.75C91.25 20.9375 91.625 18.125 92.75 15.5C93.125 14.5625 93.5 14 94.25 13.0625C94.25 12.875 94.4375 12.875 95 12.5C94.4375 12.875 95 12.5 95.1875 12.5C94.8125 12.6875 94.8125 12.6875 95 12.5H94.8125C98.375 12.3125 98.375 8.18751 94.8125 8.37501C91.25 8.93751 89.375 11.375 88.0625 13.625C86.375 16.8125 86 20.5625 86 23.9375C86 27.3125 86.5625 31.0625 88.0625 34.25C89.1875 36.5 91.25 38.9375 94.8125 39.125C98.375 39.3125 98.375 35.1875 94.8125 35" fill="#94989B"/>
<path d="M112.063 70.625C112.063 94.8125 94.0625 121.25 69.3125 121.25C69.3125 121.25 79.4375 115.625 79.4375 95.1875C107.75 95.1875 112.063 70.625 112.063 70.625Z" fill="#D7DADB"/>
<path d="M71.65 67.4C76.2 67.4 79 60.75 79 56.55C79 53.05 77.25 48.85 73.75 48.85C69.2 48.85 66.4 55.5 66.4 59.7C66.4 63.2 68.15 67.4 71.65 67.4V67.4ZM58.35 67.4C61.85 67.4 63.6 63.2 63.6 59.7C63.6 55.15 60.8 48.5 56.25 48.5C52.75 48.5 51 52.7 51 56.2C50.65 60.75 53.45 67.4 58.35 67.4V67.4ZM84.25 63.9C79.7 63.9 76.55 70.2 76.55 74.75C76.55 77.9 77.95 81.05 81.1 81.05C85.65 81.05 88.8 74.75 88.8 70.2C88.8 67.05 87.05 63.9 84.25 63.9V63.9ZM53.8 74.75C53.8 70.2 50.3 63.9 46.1 63.9C42.95 63.9 41.55 67.05 41.55 70.2C41.55 74.75 45.05 81.05 49.25 81.05C52.4 81.05 53.8 77.9 53.8 74.75ZM65 74.05C58 74.05 48.55 85.25 48.55 92.95C48.55 96.45 51 97.5 53.8 97.5C58 97.5 61.15 94.7 65 94.7C68.5 94.7 71.65 97.5 75.5 97.5C78.3 97.5 81.45 96.8 81.45 92.95C81.45 85.25 72 74.05 65 74.05V74.05Z" fill="#6F2219"/>
</svg>
