<svg width="164" height="30" viewBox="0 0 164 30" fill="none" xmlns="http://www.w3.org/2000/svg">
<path d="M23.5117 29H17.6523L6.24609 10.2891V29H0.386719V0.5625H6.24609L17.6719 19.3125V0.5625H23.5117V29ZM27.3789 18.2383C27.3789 16.1419 27.7826 14.2734 28.5898 12.6328C29.3971 10.9922 30.556 9.72266 32.0664 8.82422C33.5898 7.92578 35.3542 7.47656 37.3594 7.47656C40.2109 7.47656 42.5352 8.34896 44.332 10.0938C46.1419 11.8385 47.151 14.2083 47.3594 17.2031L47.3984 18.6484C47.3984 21.8906 46.4935 24.4948 44.6836 26.4609C42.8737 28.4141 40.4453 29.3906 37.3984 29.3906C34.3516 29.3906 31.9167 28.4141 30.0938 26.4609C28.2839 24.5078 27.3789 21.8516 27.3789 18.4922V18.2383ZM33.0234 18.6484C33.0234 20.6536 33.401 22.1901 34.1562 23.2578C34.9115 24.3125 35.9922 24.8398 37.3984 24.8398C38.7656 24.8398 39.8333 24.319 40.6016 23.2773C41.3698 22.2227 41.7539 20.543 41.7539 18.2383C41.7539 16.2721 41.3698 14.7487 40.6016 13.668C39.8333 12.5872 38.7526 12.0469 37.3594 12.0469C35.9792 12.0469 34.9115 12.5872 34.1562 13.668C33.401 14.7357 33.0234 16.3958 33.0234 18.6484ZM57.6328 2.67188V7.86719H61.2461V12.0078H57.6328V22.5547C57.6328 23.3359 57.7826 23.8958 58.082 24.2344C58.3815 24.5729 58.9544 24.7422 59.8008 24.7422C60.4258 24.7422 60.9792 24.6966 61.4609 24.6055V28.8828C60.3542 29.2214 59.2148 29.3906 58.043 29.3906C54.0846 29.3906 52.0664 27.3919 51.9883 23.3945V12.0078H48.9023V7.86719H51.9883V2.67188H57.6328ZM74.1172 29.3906C71.0182 29.3906 68.4922 28.4401 66.5391 26.5391C64.599 24.638 63.6289 22.1055 63.6289 18.9414V18.3945C63.6289 16.2721 64.0391 14.3776 64.8594 12.7109C65.6797 11.0312 66.8385 9.74219 68.3359 8.84375C69.8464 7.93229 71.5651 7.47656 73.4922 7.47656C76.3828 7.47656 78.6549 8.38802 80.3086 10.2109C81.9753 12.0339 82.8086 14.6185 82.8086 17.9648V20.2695H69.3516C69.5339 21.6497 70.0807 22.7565 70.9922 23.5898C71.9167 24.4232 73.082 24.8398 74.4883 24.8398C76.6628 24.8398 78.362 24.0521 79.5859 22.4766L82.3594 25.582C81.513 26.7799 80.3672 27.7174 78.9219 28.3945C77.4766 29.0586 75.875 29.3906 74.1172 29.3906ZM73.4727 12.0469C72.3529 12.0469 71.4414 12.4245 70.7383 13.1797C70.0482 13.9349 69.6055 15.0156 69.4102 16.4219H77.2617V15.9727C77.2357 14.7227 76.8971 13.7591 76.2461 13.082C75.5951 12.3919 74.6706 12.0469 73.4727 12.0469ZM92.2617 18.9805V29H86.4023V0.5625H97.4961C99.6315 0.5625 101.507 0.953125 103.121 1.73438C104.749 2.51562 105.999 3.62891 106.871 5.07422C107.743 6.50651 108.18 8.14062 108.18 9.97656C108.18 12.763 107.223 14.9635 105.309 16.5781C103.408 18.1797 100.771 18.9805 97.3984 18.9805H92.2617ZM92.2617 14.2344H97.4961C99.0456 14.2344 100.224 13.8698 101.031 13.1406C101.852 12.4115 102.262 11.3698 102.262 10.0156C102.262 8.6224 101.852 7.49609 101.031 6.63672C100.211 5.77734 99.0781 5.33464 97.6328 5.30859H92.2617V14.2344ZM121.305 29.3906C118.206 29.3906 115.68 28.4401 113.727 26.5391C111.786 24.638 110.816 22.1055 110.816 18.9414V18.3945C110.816 16.2721 111.227 14.3776 112.047 12.7109C112.867 11.0312 114.026 9.74219 115.523 8.84375C117.034 7.93229 118.753 7.47656 120.68 7.47656C123.57 7.47656 125.842 8.38802 127.496 10.2109C129.163 12.0339 129.996 14.6185 129.996 17.9648V20.2695H116.539C116.721 21.6497 117.268 22.7565 118.18 23.5898C119.104 24.4232 120.27 24.8398 121.676 24.8398C123.85 24.8398 125.549 24.0521 126.773 22.4766L129.547 25.582C128.701 26.7799 127.555 27.7174 126.109 28.3945C124.664 29.0586 123.062 29.3906 121.305 29.3906ZM120.66 12.0469C119.54 12.0469 118.629 12.4245 117.926 13.1797C117.236 13.9349 116.793 15.0156 116.598 16.4219H124.449V15.9727C124.423 14.7227 124.085 13.7591 123.434 13.082C122.783 12.3919 121.858 12.0469 120.66 12.0469ZM139.977 2.67188V7.86719H143.59V12.0078H139.977V22.5547C139.977 23.3359 140.126 23.8958 140.426 24.2344C140.725 24.5729 141.298 24.7422 142.145 24.7422C142.77 24.7422 143.323 24.6966 143.805 24.6055V28.8828C142.698 29.2214 141.559 29.3906 140.387 29.3906C136.428 29.3906 134.41 27.3919 134.332 23.3945V12.0078H131.246V7.86719H134.332V2.67188H139.977ZM158.18 23.1602C158.18 22.4701 157.835 21.9297 157.145 21.5391C156.467 21.1354 155.374 20.7773 153.863 20.4648C148.837 19.4102 146.324 17.2747 146.324 14.0586C146.324 12.1836 147.099 10.6211 148.648 9.37109C150.211 8.10807 152.249 7.47656 154.762 7.47656C157.444 7.47656 159.586 8.10807 161.188 9.37109C162.802 10.6341 163.609 12.2747 163.609 14.293H157.965C157.965 13.4857 157.704 12.8216 157.184 12.3008C156.663 11.7669 155.849 11.5 154.742 11.5C153.792 11.5 153.056 11.7148 152.535 12.1445C152.014 12.5742 151.754 13.1211 151.754 13.7852C151.754 14.4102 152.047 14.918 152.633 15.3086C153.232 15.6862 154.234 16.0182 155.641 16.3047C157.047 16.5781 158.232 16.8906 159.195 17.2422C162.177 18.3359 163.668 20.2305 163.668 22.9258C163.668 24.8529 162.841 26.4154 161.188 27.6133C159.534 28.7982 157.398 29.3906 154.781 29.3906C153.01 29.3906 151.435 29.0781 150.055 28.4531C148.688 27.8151 147.613 26.9492 146.832 25.8555C146.051 24.7487 145.66 23.5573 145.66 22.2812H151.012C151.064 23.2839 151.435 24.0521 152.125 24.5859C152.815 25.1198 153.74 25.3867 154.898 25.3867C155.979 25.3867 156.793 25.1849 157.34 24.7812C157.9 24.3646 158.18 23.8242 158.18 23.1602Z" fill="#992B25"/>
<path d="M23.5117 29H17.6523L6.24609 10.2891V29H0.386719V0.5625H6.24609L17.6719 19.3125V0.5625H23.5117V29ZM27.3789 18.2383C27.3789 16.1419 27.7826 14.2734 28.5898 12.6328C29.3971 10.9922 30.556 9.72266 32.0664 8.82422C33.5898 7.92578 35.3542 7.47656 37.3594 7.47656C40.2109 7.47656 42.5352 8.34896 44.332 10.0938C46.1419 11.8385 47.151 14.2083 47.3594 17.2031L47.3984 18.6484C47.3984 21.8906 46.4935 24.4948 44.6836 26.4609C42.8737 28.4141 40.4453 29.3906 37.3984 29.3906C34.3516 29.3906 31.9167 28.4141 30.0938 26.4609C28.2839 24.5078 27.3789 21.8516 27.3789 18.4922V18.2383ZM33.0234 18.6484C33.0234 20.6536 33.401 22.1901 34.1562 23.2578C34.9115 24.3125 35.9922 24.8398 37.3984 24.8398C38.7656 24.8398 39.8333 24.319 40.6016 23.2773C41.3698 22.2227 41.7539 20.543 41.7539 18.2383C41.7539 16.2721 41.3698 14.7487 40.6016 13.668C39.8333 12.5872 38.7526 12.0469 37.3594 12.0469C35.9792 12.0469 34.9115 12.5872 34.1562 13.668C33.401 14.7357 33.0234 16.3958 33.0234 18.6484ZM57.6328 2.67188V7.86719H61.2461V12.0078H57.6328V22.5547C57.6328 23.3359 57.7826 23.8958 58.082 24.2344C58.3815 24.5729 58.9544 24.7422 59.8008 24.7422C60.4258 24.7422 60.9792 24.6966 61.4609 24.6055V28.8828C60.3542 29.2214 59.2148 29.3906 58.043 29.3906C54.0846 29.3906 52.0664 27.3919 51.9883 23.3945V12.0078H48.9023V7.86719H51.9883V2.67188H57.6328ZM74.1172 29.3906C71.0182 29.3906 68.4922 28.4401 66.5391 26.5391C64.599 24.638 63.6289 22.1055 63.6289 18.9414V18.3945C63.6289 16.2721 64.0391 14.3776 64.8594 12.7109C65.6797 11.0312 66.8385 9.74219 68.3359 8.84375C69.8464 7.93229 71.5651 7.47656 73.4922 7.47656C76.3828 7.47656 78.6549 8.38802 80.3086 10.2109C81.9753 12.0339 82.8086 14.6185 82.8086 17.9648V20.2695H69.3516C69.5339 21.6497 70.0807 22.7565 70.9922 23.5898C71.9167 24.4232 73.082 24.8398 74.4883 24.8398C76.6628 24.8398 78.362 24.0521 79.5859 22.4766L82.3594 25.582C81.513 26.7799 80.3672 27.7174 78.9219 28.3945C77.4766 29.0586 75.875 29.3906 74.1172 29.3906ZM73.4727 12.0469C72.3529 12.0469 71.4414 12.4245 70.7383 13.1797C70.0482 13.9349 69.6055 15.0156 69.4102 16.4219H77.2617V15.9727C77.2357 14.7227 76.8971 13.7591 76.2461 13.082C75.5951 12.3919 74.6706 12.0469 73.4727 12.0469ZM92.2617 18.9805V29H86.4023V0.5625H97.4961C99.6315 0.5625 101.507 0.953125 103.121 1.73438C104.749 2.51562 105.999 3.62891 106.871 5.07422C107.743 6.50651 108.18 8.14062 108.18 9.97656C108.18 12.763 107.223 14.9635 105.309 16.5781C103.408 18.1797 100.771 18.9805 97.3984 18.9805H92.2617ZM92.2617 14.2344H97.4961C99.0456 14.2344 100.224 13.8698 101.031 13.1406C101.852 12.4115 102.262 11.3698 102.262 10.0156C102.262 8.6224 101.852 7.49609 101.031 6.63672C100.211 5.77734 99.0781 5.33464 97.6328 5.30859H92.2617V14.2344ZM121.305 29.3906C118.206 29.3906 115.68 28.4401 113.727 26.5391C111.786 24.638 110.816 22.1055 110.816 18.9414V18.3945C110.816 16.2721 111.227 14.3776 112.047 12.7109C112.867 11.0312 114.026 9.74219 115.523 8.84375C117.034 7.93229 118.753 7.47656 120.68 7.47656C123.57 7.47656 125.842 8.38802 127.496 10.2109C129.163 12.0339 129.996 14.6185 129.996 17.9648V20.2695H116.539C116.721 21.6497 117.268 22.7565 118.18 23.5898C119.104 24.4232 120.27 24.8398 121.676 24.8398C123.85 24.8398 125.549 24.0521 126.773 22.4766L129.547 25.582C128.701 26.7799 127.555 27.7174 126.109 28.3945C124.664 29.0586 123.062 29.3906 121.305 29.3906ZM120.66 12.0469C119.54 12.0469 118.629 12.4245 117.926 13.1797C117.236 13.9349 116.793 15.0156 116.598 16.4219H124.449V15.9727C124.423 14.7227 124.085 13.7591 123.434 13.082C122.783 12.3919 121.858 12.0469 120.66 12.0469ZM139.977 2.67188V7.86719H143.59V12.0078H139.977V22.5547C139.977 23.3359 140.126 23.8958 140.426 24.2344C140.725 24.5729 141.298 24.7422 142.145 24.7422C142.77 24.7422 143.323 24.6966 143.805 24.6055V28.8828C142.698 29.2214 141.559 29.3906 140.387 29.3906C136.428 29.3906 134.41 27.3919 134.332 23.3945V12.0078H131.246V7.86719H134.332V2.67188H139.977ZM158.18 23.1602C158.18 22.4701 157.835 21.9297 157.145 21.5391C156.467 21.1354 155.374 20.7773 153.863 20.4648C148.837 19.4102 146.324 17.2747 146.324 14.0586C146.324 12.1836 147.099 10.6211 148.648 9.37109C150.211 8.10807 152.249 7.47656 154.762 7.47656C157.444 7.47656 159.586 8.10807 161.188 9.37109C162.802 10.6341 163.609 12.2747 163.609 14.293H157.965C157.965 13.4857 157.704 12.8216 157.184 12.3008C156.663 11.7669 155.849 11.5 154.742 11.5C153.792 11.5 153.056 11.7148 152.535 12.1445C152.014 12.5742 151.754 13.1211 151.754 13.7852C151.754 14.4102 152.047 14.918 152.633 15.3086C153.232 15.6862 154.234 16.0182 155.641 16.3047C157.047 16.5781 158.232 16.8906 159.195 17.2422C162.177 18.3359 163.668 20.2305 163.668 22.9258C163.668 24.8529 162.841 26.4154 161.188 27.6133C159.534 28.7982 157.398 29.3906 154.781 29.3906C153.01 29.3906 151.435 29.0781 150.055 28.4531C148.688 27.8151 147.613 26.9492 146.832 25.8555C146.051 24.7487 145.66 23.5573 145.66 22.2812H151.012C151.064 23.2839 151.435 24.0521 152.125 24.5859C152.815 25.1198 153.74 25.3867 154.898 25.3867C155.979 25.3867 156.793 25.1849 157.34 24.7812C157.9 24.3646 158.18 23.8242 158.18 23.1602Z" fill="url(#paint0_linear)"/>
<defs>
<linearGradient id="paint0_linear" x1="81.5" y1="-8" x2="81.5" y2="39" gradientUnits="userSpaceOnUse">
<stop stop-color="#D76E33"/>
<stop offset="0.786458" stop-color="white" stop-opacity="0"/>
</linearGradient>
</defs>
</svg>
